P3
3 2
255
92
92
92
151
151
151
134
134
134
101
101
101
139
139
139
92
92
92
