P3
2 2
255
214
32
32
214
32
208
157
32
214
59
32
214